<svg xmlns="http://www.w3.org/2000/svg" viewBox="0 0 640 640"><g fill="none" fill-rule="evenodd"><circle cx="320" cy="320" r="320" fill="#0F80CC"/><g fill="#FFF"><path fill-rule="nonzero" d="M392.064 287.43c-2.595 3.038-4.714 5.619-6.903 8.106a126.46 126.46 0 0 1-26.35 22.938c-16.067 10.371-33.575 13.963-52.128 13.182-7.086-.304-14.162-.87-21.24-1.189-6.336-.3-12.711-.533-18.941 1.014a101.253 101.253 0 0 0-10.791 3.808 8.868 8.868 0 0 0-1.856 1.304l.525.303c11.893-4.565 23.958-3.851 36.017-1.764 7.834 1.343 15.684 3.143 23.488 4.236 5.5.782 11.056 1.166 16.625 1.15 7.292.19 14.337-2.964 19.164-8.582.127.92.176 1.85.145 2.78a46.544 46.544 0 0 1-18.4 31.87c-4.743 3.637-10.167 6.364-15.269 9.563a16.618 16.618 0 0 0-3.91 2.923c-10.637 12.362-24.276 18.134-40.002 19.306-9.393.722-18.736-.1-28.075-.776-6.055-.424-12.144-.546-18.216-.515a17.6 17.6 0 0 0-10.074 2.99c12.263-1.69 23.697 2.267 35.375 4.348 2.494.44 4.967.974 7.47 1.276 8.11 1.11 12.287.45 20.856-2.783a21.589 21.589 0 0 1-2.029 2.15 22.245 22.245 0 0 1-11.512 4.785c-4.673.4-9.36.544-14.039.432-7.714-.095-15.434-.909-23.14-.535-21.854 1.028-38.748 11.315-50.979 29.741-7.722 11.617-13.304 24.47-18.398 37.353a9.628 9.628 0 0 0-.655 1.801c-1 5.853-5.527 6.937-10.67 8.236 1.25-3.315 2.29-6.179 3.437-8.982a707.466 707.466 0 0 1 56.54-111.48c9.847-15.873 20.45-31.238 31.613-46.208a633.78 633.78 0 0 1 50.68-60.047c37.328-39.346 80.08-73.038 126.888-99.995a6.924 6.924 0 0 0 2.22-1.844c-51.952 26.051-99.302 60.754-140.027 102.626a584.944 584.944 0 0 0-101.686 141.695c.204-.99.327-1.99.617-2.948a342.784 342.784 0 0 1 21.515-52.844 371.662 371.662 0 0 1 27.934-46.261 450.586 450.586 0 0 1 63.036-71.72c42.221-39.326 90.736-71.088 143.393-93.878a379.06 379.06 0 0 1 62.366-20.791c1.226-.275 2.463-.508 4.255-.884-.405 1.731-.653 3.07-1.021 4.376a281.777 281.777 0 0 1-15.97 41.755A417.13 417.13 0 0 1 460.1 203.2c-12.385 20.088-25.942 39.356-42.688 56.086-9.832 9.846-21.017 17.641-34.384 21.82-10.955 3.426-22.06 3.445-33.193 2.269-6.915-.724-13.782-1.831-20.685-2.726-7.68-1.005-15.371-1.534-23.085.067a30.451 30.451 0 0 0-9.75 3.552l.708.409c10.166-3.847 20.45-3.412 30.768-1.402 10.319 2.01 20.302 4.238 30.445 6.129a62.68 62.68 0 0 0 20.08.984c4.305-.605 8.588-1.811 13.748-2.959Z"/><path d="m159.361 484.071.048.02 5.677-14.052-10.756-4.346-5.677 14.051.04.017-1.234 3.147c-.475 1.21-1.672 1.416-1.672 1.416l-.57 1.453 12.546 5.219.57-1.453s-.724-1.004-.25-2.215c.39-.99 1.05-2.674 1.278-3.257Z"/><path fill-rule="nonzero" d="m150.581 489.127.778.324 4.985 2.073c-.35 2.67-.418 8.271-.418 8.271a3.638 3.638 0 0 1-1.616 3.098l-9.901 7.024-.761 1.941c.216.49.245 1.063.036 1.597a1.991 1.991 0 0 1-2.63 1.116 2.09 2.09 0 0 1-1.14-2.684c.209-.534.616-.924 1.103-1.124l.761-1.941-2.387-12.135a3.679 3.679 0 0 1 .926-3.385s3.73-4.078 5.28-6.25l4.984 2.075Zm-.34 8.785a2.532 2.532 0 0 0-1.38-3.25 2.411 2.411 0 0 0-3.184 1.352 2.532 2.532 0 0 0 1.09 3.105l-4.53 11.553c.104.025.206.055.308.098.1.042.195.094.287.15l4.531-11.554a2.408 2.408 0 0 0 2.878-1.454Z"/><path d="M507.5 443.36c3-2.3 1.8-1.9-7.5 2.9-24.2 12.3-49 17.2-81.9 16.2-24.4-.7-33.4-2.2-81.6-12.8-30-6.6-43.3-5.9-44.3 2.5-.2 1.7 1.3 5.6 4.2 11 5.6 10.3 6.1 15.3 1.9 18.6-3.7 2.9-7.4 2.4-34.5-4-34.8-8.4-48.1-8.8-55.1-1.9-3.8 3.9-3.1 7 3.8 17.4 8.8 13 9.6 17.6 4.2 23-5.2 5.2-12.5 6.9-29.2 6.9-15.1-.1-28-2-39.7-5.9-3.8-1.3-6.8-2.1-6.8-1.9 0 1.2 11.7 6 19.9 8.1 7.4 1.9 13.1 2.6 24.6 3 17.6.6 26.6-.6 35.2-4.7 13.3-6.2 14.2-13.7 3.7-30.6-2.8-4.5-4.4-8.2-4.2-9.6.3-2.1.8-2.3 5.3-2.1 3 .1 13.9 3 26 6.8 33.9 10.6 43.2 11.5 54.7 5.7 6.9-3.6 9.1-6.7 9.6-14 .4-5.3 0-6.5-4.2-14.6-5-9.5-5.4-11.1-3.1-12 .8-.3 13.8 1.9 28.8 4.9 45.5 9.1 63.2 11 91.2 10.2 25.2-.8 40.1-3.8 58.8-11.9 6.7-2.9 16.4-8.2 20.2-11.2Z"/></g></g></svg>